<?xml version="1.0" encoding="utf-8"?>
<!-- Generator: Adobe Illustrator 21.0.0, SVG Export Plug-In . SVG Version: 6.00 Build 0)  -->
<svg version="1.1" id="Layer_1" xmlns="http://www.w3.org/2000/svg" xmlns:xlink="http://www.w3.org/1999/xlink" x="0px" y="0px"
	 viewBox="0 0 1235 315.5" style="enable-background:new 0 0 1235 315.5;" xml:space="preserve">
<style type="text/css">
	.st0{fill:#FFFFFF;}
</style>
<g>
	<path class="st0" d="M218.6,292.8c-25.5,9.7-55.3,10.9-67.9,10.9c-35.1,0-72.7-12.5-99.4-39.2c-25.5-25-39.2-61.4-39.2-99.4
		c0-41.6,15.8-77.2,40.4-102.2c19-19,51.3-40.8,101.8-40.8c20.2,0,42.8,3.2,64.2,10.5l2.8,102.6c-11.3-11.3-32.3-26.7-57-26.7
		c-15.4,0-29.5,6.1-39.2,16.6c-9.3,10.1-14.1,24.2-14.1,38.4c0,14.5,5.3,28.7,15.8,38.8c8.1,7.7,20.6,15.4,40,15.4
		c27.5,0,46.5-16.6,54.5-25.5L218.6,292.8z"/>
</g>
<g>
	<path class="st0" d="M263,297.7V28.2h94.1v91.3h59.8V28.2H511v269.5h-94.1V204h-59.8v93.7H263z"/>
</g>
<g>
	<path class="st0" d="M565.2,297.7V28.2H663v269.5H565.2z"/>
</g>
<g>
	<path class="st0" d="M911.4,292.8c-25.5,9.7-55.3,10.9-67.9,10.9c-35.1,0-72.7-12.5-99.4-39.2c-25.5-25-39.2-61.4-39.2-99.4
		c0-41.6,15.8-77.2,40.4-102.2c19-19,51.3-40.8,101.8-40.8c20.2,0,42.8,3.2,64.2,10.5l2.8,102.6c-11.3-11.3-32.3-26.7-57-26.7
		c-15.4,0-29.5,6.1-39.2,16.6c-9.3,10.1-14.1,24.2-14.1,38.4c0,14.5,5.3,28.7,15.8,38.8c8.1,7.7,20.6,15.4,40,15.4
		c27.5,0,46.5-16.6,54.5-25.5L911.4,292.8z"/>
</g>
<g>
	<path class="st0" d="M955.8,297.7V28.2h93.7v83.6c0,12.1-0.4,21.8-2,33.9h2c5.7-15.4,9.3-21.4,14.1-30.3l46.5-87.3H1216l-84,132.1
		l92.9,137.4h-113.1l-49.3-86.5c-4.8-8.1-9.3-17.8-12.9-25.9h-2c1.6,9.3,2,16.6,2,25.5v86.9L955.8,297.7L955.8,297.7z"/>
</g>
</svg>
