<?xml version="1.0" encoding="utf-8"?>
<!-- Generator: Adobe Illustrator 21.0.0, SVG Export Plug-In . SVG Version: 6.00 Build 0)  -->
<svg version="1.1" id="Layer_1" xmlns="http://www.w3.org/2000/svg" xmlns:xlink="http://www.w3.org/1999/xlink" x="0px" y="0px"
	 viewBox="0 0 1235 631" style="enable-background:new 0 0 1235 631;" xml:space="preserve">
<style type="text/css">
	.st0{fill:#FFFFFF;}
</style>
<g>
	<path class="st0" d="M99.4,25.6l73.7,261.6L350,25.6h17.2l-54.3,277h-11.6l51.1-260.1L175.7,302.7h-9L91.9,42.2L40.8,302.7H29.2
		l54.3-277H99.4z"/>
</g>
<g>
	<path class="st0" d="M418.2,302.7h-11.6l54.1-277h11.6L418.2,302.7z"/>
</g>
<g>
	<path class="st0" d="M525.7,292.4h155.7l-1.5,10.3H511.7l54.3-277h11.8L525.7,292.4z"/>
</g>
<g>
	<path class="st0" d="M926.2,165.3H773.5l-25,127.1h173.6l-1.7,10.3H734.7l54.5-277h185.3l-1.7,10.3H798.9L775.4,155h152.3
		L926.2,165.3z"/>
</g>
<g>
	<path class="st0" d="M1178.6,216.5c-2.9-11.5-10.4-21.1-22.6-28.8c-12.2-7.7-31.1-14.9-56.7-21.7c-25.6-6.8-44.4-13.6-56.7-20.5
		c-12.2-6.9-20.8-15.1-25.7-24.4c-5-9.4-6.3-19.9-4-31.4c2.4-13.6,9-25.5,19.6-35.7c10.6-10.2,24.2-18.1,40.8-23.7
		c16.6-5.6,34.2-8.4,52.9-8.4c18.5,0,34.9,3.6,49.2,10.7c14.3,7.1,24.7,16.9,31.2,29.3c6.5,12.4,8.7,26.4,6.4,41.9h-11.6
		c3.6-20.7-1.7-37.8-15.9-51.3c-14.2-13.5-33.9-20.3-59-20.3c-23.4,0-44.6,4.7-63.5,14c-19,9.3-31.1,21.7-36.4,37.2
		c-3.2,9.3-3.7,17.6-1.7,24.9c2.9,11.3,10.7,20.6,23.6,28.1c12.9,7.4,30.6,14,53.3,19.7c35,8.8,59.5,19.6,73.2,32.5
		c13.8,12.9,18.9,28.7,15.3,47.4c-2.4,14.1-9.1,26.4-19.9,37c-10.8,10.6-24.8,18.8-41.9,24.7c-17.1,5.9-35.2,8.8-54.3,8.8
		c-32.7,0-58.2-7.5-76.3-22.5c-18.1-15-25.2-34.8-21.3-59.6h11.6c-3.6,21.8,2.5,39.2,18.3,52.2c15.8,13,38.3,19.5,67.4,19.5
		c23.4,0,44.6-4.6,63.5-13.8c19-9.2,31.6-21.5,37.9-36.8C1179.7,235.1,1180.8,225.4,1178.6,216.5z"/>
</g>
<g>
	<path class="st0" d="M231.6,524c-8.4,26.6-23.1,47.6-44.3,63c-21.1,15.4-46.8,23-77,23c-17.7,0-33.2-3.7-46.4-11.1
		s-23.3-18.1-30.4-32.2C26.5,552.7,23,537,23,519.6c-0.1-9.7,0.7-19.4,2.5-28.9l6.9-36.1c6.8-35.6,22-64.8,45.4-87.4
		c23.5-22.6,51.7-33.9,84.6-33.9c29.2,0,51.8,7.6,67.8,22.8c16.1,15.2,23.4,36.2,22,63h-11.1c1.1-23.8-5.2-42.4-18.8-55.8
		c-13.7-13.4-33.6-20.1-59.7-20.1c-18.4,0-35.7,4.3-51.8,12.9c-16.1,8.6-30.2,21.5-42.2,38.6c-12,17.1-20.2,36.5-24.5,58.4
		l-7.7,38.7c-1.5,8.1-2.3,16.4-2.3,24.8c-0.3,16.2,2.5,30.7,8.5,43.6c5.9,12.9,14.7,22.8,26.3,29.6c11.6,6.8,25.3,10.3,41.3,10.3
		c27.4,0,50.5-6.7,69.3-20s32.5-32,40.8-56H231.6z"/>
</g>
<g>
	<path class="st0" d="M497.1,606.3h-11.3l26-133.5H323.3l-26.2,133.5h-11.3L338.4,337h11.3l-24.5,125.8h188.5L538.3,337h11.1
		L497.1,606.3z"/>
</g>
<g>
	<path class="st0" d="M599.5,606.3h-11.3L640.7,337H652L599.5,606.3z"/>
</g>
<g>
	<path class="st0" d="M907.9,524c-8.4,26.6-23.1,47.6-44.3,63c-21.2,15.4-46.8,23-77,23c-17.7,0-33.2-3.7-46.4-11.1
		s-23.3-18.1-30.4-32.2c-7.1-14.1-10.6-29.8-10.6-47.2c-0.1-9.7,0.7-19.4,2.5-28.9l6.9-36.1c6.8-35.6,22-64.8,45.4-87.4
		c23.5-22.6,51.7-33.9,84.6-33.9c29.2,0,51.8,7.6,67.8,22.8c16.1,15.2,23.4,36.2,22,63h-11.1c1.1-23.8-5.2-42.4-18.8-55.8
		C885,350,865.1,343.3,839,343.3c-18.4,0-35.7,4.3-51.8,12.9c-16.1,8.6-30.2,21.5-42.2,38.6c-12,17.1-20.2,36.5-24.5,58.4l-7.7,38.7
		c-1.5,8.1-2.3,16.4-2.3,24.8c-0.3,16.2,2.5,30.7,8.5,43.6c5.9,12.9,14.7,22.8,26.3,29.6c11.6,6.8,25.3,10.3,41.3,10.3
		c27.4,0,50.5-6.7,69.3-20c18.8-13.3,32.5-32,40.8-56H907.9z"/>
</g>
<g>
	<path class="st0" d="M1049.1,464.8L993.2,505l-19.7,101.4h-11.3l52.6-269.3h11.3l-30.4,154.6l56.1-42.2L1196.7,337l17.6,0.2
		l-156.6,121.3L1171,606.3h-13.8L1049.1,464.8z"/>
</g>
</svg>
