<?xml version="1.0" encoding="utf-8"?>
<!-- Generator: Adobe Illustrator 21.0.0, SVG Export Plug-In . SVG Version: 6.00 Build 0)  -->
<svg version="1.1" id="Layer_1" xmlns="http://www.w3.org/2000/svg" xmlns:xlink="http://www.w3.org/1999/xlink" x="0px" y="0px"
	 viewBox="0 0 1235 631" style="enable-background:new 0 0 1235 631;" xml:space="preserve">
<style type="text/css">
	.st0{fill:#FFFFFF;}
</style>
<g>
	<g>
		<path class="st0" d="M284.1,286.8L272,166.1c-0.2-1.7-0.3-3.4-0.5-5c-0.6-6.7-1.2-12.5-1.2-21.7v-0.1h-1.8l0,0.1
			c-1.2,6.9-3.7,17.5-5.2,22.6l-40,124.8h-57.2l-35.9-117.9c-3-10.4-4.9-18.5-5.2-29.5l0-0.1h-3.1v0.1c0,5.1,0,15.8-0.4,21
			l-13.3,126.3H13.5L57.1,17.6h100.4l31.5,110.2c3.8,13.5,5.5,26.2,6.1,31.1l0,0.1h2.7l0-0.1c0.4-12.2,2.2-20.3,5.2-31.1l31.5-110.2
			H334l44,269.2H284.1z"/>
		<path d="M333.9,17.7l44,269h-93.6l-12.1-120.6c-0.2-1.7-0.3-3.4-0.5-5c-0.6-6.7-1.2-12.5-1.2-21.7v-0.3h-0.3h-1.6h-0.2l0,0.2
			c-1.2,6.9-3.7,17.5-5.2,22.6l-39.9,124.7h-57l-35.9-117.8c-3-10.4-4.9-18.5-5.2-29.4l0-0.2h-0.2H122h-0.3v0.3c0,5.1,0,15.7-0.4,21
			L108,286.7H13.6l43.6-269h100.2l31.5,110.1c3.8,13.4,5.5,26.2,6.1,31.1l0,0.2h0.2h2.4h0.2l0-0.2c0.4-12.1,2.2-20.3,5.2-31
			l31.5-110.1H333.9 M334.1,17.5h-99.8l-31.5,110.3c-3.2,11.3-4.8,19.4-5.3,31.1h-2.4c-0.4-3.6-2-17-6.1-31.1L157.6,17.5H57
			L13.3,286.9h94.9l13.3-126.5c0.4-5.3,0.4-15.8,0.4-21h2.8c0.4,11.3,2.4,19.8,5.3,29.5l36,118h57.4l40-124.8
			c1.6-5.3,4-15.8,5.3-22.6h1.6c0,11.3,0.8,17.4,1.6,26.7L284,286.9h94.1L334.1,17.5L334.1,17.5z"/>
	</g>
	<g>
		<rect x="421.5" y="17.6" class="st0" width="97.5" height="269.2"/>
		<path d="M518.9,17.7v269h-97.3v-269H518.9 M519.1,17.5h-97.8v269.5h97.8V17.5L519.1,17.5z"/>
	</g>
	<g>
		<polygon class="st0" points="573.4,286.8 573.4,17.6 670.9,17.6 670.9,200.2 753.3,200.2 753.3,286.8 		"/>
		<path d="M670.8,17.7v182.4v0.3h0.3h82.2v86.4H573.5v-269H670.8 M671,17.5h-97.8v269.5h180.2v-86.9H671V17.5L671,17.5z"/>
	</g>
	<g>
		<polygon class="st0" points="786.3,286.8 786.3,17.6 967.8,17.6 967.8,91.3 883.8,91.3 883.8,116.6 960.2,116.6 960.2,187 
			883.8,187 883.8,213.1 970.3,213.1 970.3,286.8 		"/>
		<path d="M967.7,17.7v73.4h-83.8h-0.3v0.3v25v0.3h0.3H960v70.2h-76.1h-0.3v0.3V213v0.3h0.3h86.2v73.4H786.4v-269H967.7 M968,17.5
			H786.2v269.5h184.2V213h-86.5v-25.9h76.4v-70.7h-76.4v-25h84V17.5L968,17.5z"/>
	</g>
	<g>
		<path class="st0" d="M1100.9,292.9c-39.7,0-67.2-11.1-89.2-20l-2.4-1l-8.8-3.6l29.4-75.7l10.4,8c7.8,6,28.9,19.8,54.6,19.8
			c13,0,18.8-3.1,21.1-4.9c4.7-3.8,5.3-8.5,5.3-12.2c0-4-1.1-7.2-3.3-9.4c-3.3-3.3-8.7-4.5-18.6-6.5l-23.8-4.4
			c-15.4-2.8-31.8-7.6-46.8-23c-13.2-13.6-19.4-29.4-19.4-49.6c0-25.5,8.6-46.5,26.2-64.1c22.6-23,54.1-34.7,93.6-34.7
			c18.5,0,47.2,2.4,81.9,23.4l-26.2,68.4c-11-7.6-32.6-20.1-54.9-20.1c-4.6,0-13.1,0.6-18.7,4.9c-3.5,2.7-4.9,5.5-4.9,9.8
			c0,5.9,1.2,11.1,15.9,14.3l31.1,6.9c24.4,5.4,38.5,15.5,46,23c13.6,13.3,20.6,31.2,20.6,53.2c0,26-7.7,46.1-24.2,63.3
			C1180.5,274.2,1151.6,292.9,1100.9,292.9z"/>
		<path d="M1129.2,11.7c18.5,0,47.1,2.4,81.7,23.3l-26.1,68.2c-11-7.6-32.6-20.1-54.8-20.1c-4.6,0-13.2,0.6-18.7,4.9
			c-3.5,2.7-4.9,5.6-4.9,9.9c0,6,1.2,11.2,16,14.4l31.1,6.9c24.4,5.4,38.4,15.4,45.9,23c13.6,13.3,20.5,31.2,20.5,53.2
			c0,25.9-7.7,46-24.2,63.3c-15.2,15.6-44,34.3-94.8,34.3c-39.7,0-67.1-11.1-89.2-20l-2.4-1l-8.7-3.5l29.3-75.4l10.2,7.9
			c7.9,6,28.9,19.8,54.7,19.8c13.1,0,18.9-3.1,21.2-4.9c4.7-3.9,5.3-8.6,5.3-12.3c0-4-1.1-7.3-3.3-9.5c-3.3-3.3-8.7-4.5-18.7-6.5
			l-23.8-4.4c-15.4-2.8-31.8-7.6-46.7-23c-13.2-13.6-19.3-29.3-19.3-49.5c0-25.5,8.6-46.4,26.2-64.1
			C1058.2,23.3,1089.6,11.7,1129.2,11.7 M1129.2,11.4c-42.8,0-73.1,13.7-93.7,34.7c-17.8,17.8-26.3,39.2-26.3,64.2
			c0,19.4,5.7,35.6,19.4,49.7c14.9,15.4,31.5,20.2,46.9,23l23.8,4.4c10.1,2,15.4,3.2,18.6,6.5c2.8,2.8,3.2,6.9,3.2,9.3
			c0,4-0.8,8.5-5.3,12.1c-2,1.6-7.7,4.8-21,4.8c-23.8,0-44.4-12.1-54.5-19.8l-10.5-8.1l-29.5,76l8.9,3.6c23,9.3,50.5,21,91.7,21
			c50.5,0,79.6-18.6,94.9-34.3c18.2-19,24.2-40.4,24.2-63.4c0-16.2-3.6-36.8-20.6-53.3c-8.1-8.1-22.2-17.8-46.1-23l-31.1-6.9
			c-14.9-3.2-15.8-8.5-15.8-14.1c0-4,1.2-6.9,4.8-9.7c5.3-4,13.3-4.8,18.6-4.8c21.8,0,43.2,12.1,54.9,20.2l26.3-68.7
			C1178.4,15,1150.6,11.4,1129.2,11.4L1129.2,11.4z"/>
	</g>
	<g>
		<path class="st0" d="M150.7,619.1c-38.2,0-74.4-14.3-99.3-39.2c-24.9-24.5-39.2-60.7-39.2-99.3c0-39.4,14.3-75.7,40.4-102.1
			c26.7-26.7,61.8-40.8,101.7-40.8c21.7,0,43.9,3.6,64.1,10.5l2.8,102.2c-8.2-8.1-29.7-26.5-56.8-26.5c-15.2,0-29.5,6.1-39.3,16.6
			c-9,9.8-14.2,23.8-14.2,38.5c0,15.3,5.6,29.1,15.8,38.9c10.7,10.2,24.2,15.4,40.1,15.4c28.1,0,47.3-17.5,54.4-25.2l-2.8,100.2
			C192.6,618,162.5,619.1,150.7,619.1z"/>
		<path d="M154.3,337.9c21.7,0,43.8,3.6,64,10.4l2.8,101.8c-8.4-8.3-29.7-26.3-56.7-26.3c-15.3,0-29.6,6.1-39.4,16.6
			c-9,9.8-14.2,23.9-14.2,38.6c0,15.3,5.6,29.1,15.8,39c10.8,10.2,24.3,15.4,40.2,15.4c27.8,0,46.9-17.1,54.3-25l-2.8,99.8
			c-25.8,9.8-55.9,10.8-67.6,10.8c-38.2,0-74.4-14.3-99.2-39.1c-24.9-24.5-39.1-60.6-39.1-99.2c0-39.4,14.3-75.6,40.3-102
			c11.5-11.5,24.6-20.8,39-27.5C110.5,342.3,131.6,337.9,154.3,337.9 M154.3,337.6c-50.5,0-82.8,21.8-101.8,40.8
			c-24.6,25-40.4,60.6-40.4,102.2c0,38,13.7,74.3,39.2,99.4c26.7,26.7,64.2,39.2,99.4,39.2c12.5,0,42.4-1.2,67.9-10.9l2.8-100.6
			c-8.1,8.9-27.1,25.5-54.5,25.5c-19.4,0-31.9-7.7-40-15.4c-10.5-10.1-15.8-24.2-15.8-38.8c0-14.1,4.8-28.3,14.1-38.4
			c9.7-10.5,23.8-16.6,39.2-16.6c24.6,0,45.7,15.4,57,26.7l-2.8-102.6C197.1,340.9,174.5,337.6,154.3,337.6L154.3,337.6z"/>
	</g>
	<g>
		<polygon class="st0" points="417,613 417,519.3 357,519.3 357,613 263.1,613 263.1,343.8 357,343.8 357,435.1 417,435.1 
			417,343.8 510.9,343.8 510.9,613 		"/>
		<path d="M510.8,343.9v269h-93.6v-93.5v-0.3h-0.3h-59.8h-0.3v0.3v93.5h-93.6v-269h93.6V435v0.3h0.3h59.8h0.3V435v-91.1H510.8
			 M511,343.7h-94.1V435h-59.8v-91.3H263v269.5h94.1v-93.7h59.8v93.7H511V343.7L511,343.7z"/>
	</g>
	<g>
		<rect x="565.3" y="343.8" class="st0" width="97.5" height="269.2"/>
		<path d="M662.7,343.9v269h-97.3v-269H662.7 M662.9,343.7h-97.8v269.5h97.8V343.7L662.9,343.7z"/>
	</g>
	<g>
		<path class="st0" d="M843.5,619.1c-38.2,0-74.4-14.3-99.3-39.2c-24.9-24.5-39.2-60.7-39.2-99.3c0-39.4,14.3-75.7,40.4-102.1
			c26.7-26.7,61.8-40.8,101.7-40.8c21.7,0,43.9,3.6,64.1,10.5l2.8,102.2c-8.2-8.1-29.7-26.5-56.8-26.5c-15.2,0-29.5,6.1-39.3,16.6
			c-9,9.8-14.2,23.8-14.2,38.5c0,15.3,5.6,29.1,15.8,38.9c10.7,10.2,24.2,15.4,40.1,15.4c28.1,0,47.3-17.5,54.4-25.2l-2.8,100.2
			C885.5,618,855.3,619.1,843.5,619.1z"/>
		<path d="M847.2,337.9c21.7,0,43.8,3.6,64,10.4l2.8,101.8c-8.4-8.3-29.7-26.3-56.7-26.3c-15.3,0-29.6,6.1-39.4,16.6
			c-9,9.8-14.2,23.9-14.2,38.6c0,15.3,5.6,29.1,15.8,39c10.8,10.2,24.3,15.4,40.2,15.4c27.8,0,46.9-17.1,54.3-25l-2.8,99.8
			c-25.8,9.8-55.9,10.8-67.6,10.8c-38.2,0-74.4-14.3-99.2-39.1c-24.9-24.5-39.1-60.6-39.1-99.2c0-39.4,14.3-75.6,40.3-102
			c11.5-11.5,24.6-20.8,39-27.5C803.4,342.3,824.5,337.9,847.2,337.9 M847.2,337.6c-50.5,0-82.8,21.8-101.8,40.8
			c-24.6,25-40.4,60.6-40.4,102.2c0,38,13.7,74.3,39.2,99.4c26.7,26.7,64.2,39.2,99.4,39.2c12.5,0,42.4-1.2,67.9-10.9l2.8-100.6
			c-8.1,8.9-27.1,25.5-54.5,25.5c-19.4,0-31.9-7.7-40-15.4c-10.5-10.1-15.8-24.2-15.8-38.8c0-14.1,4.8-28.3,14.1-38.4
			c9.7-10.5,23.8-16.6,39.2-16.6c24.6,0,45.7,15.4,57,26.7l-2.8-102.6C890,340.9,867.4,337.6,847.2,337.6L847.2,337.6z"/>
	</g>
	<g>
		<path class="st0" d="M1111.9,613l-49.3-86.4c-4.8-7.9-9.2-17.5-12.9-25.8l0-0.1h-2.2l0,0.1c1.7,9.6,2,17.1,2,25.4V613H956V343.8
			h93.5v83.5c0,11.6-0.3,21.3-2,33.9l0,0.1h2.2l0-0.1c5.1-13.8,8.6-20.3,12.7-27.7l1.4-2.6l46.4-87.2h105.5l-84,132l92.8,137.2
			H1111.9z"/>
		<path d="M1215.6,343.9l-83.8,131.7l-0.1,0.1l0.1,0.1l92.7,137h-112.5l-49.2-86.3c-4.8-7.9-9.2-17.5-12.9-25.8l-0.1-0.1h-0.2h-2
			h-0.3l0.1,0.3c1.7,9.6,2,17.1,2,25.4v86.6h-93.2v-269h93.2v83.4c0,11.6-0.3,21.3-2,33.9l0,0.3h0.3h2h0.2l0.1-0.2
			c5.1-13.8,8.5-19.9,12.7-27.7c0.5-0.8,0.9-1.7,1.4-2.6l46.4-87.1H1215.6 M1216,343.7h-105.8l-46.5,87.3
			c-4.8,8.9-8.5,14.9-14.1,30.3h-2c1.6-12.1,2-21.8,2-33.9v-83.6h-93.7v269.5h93.7v-86.9c0-8.9-0.4-16.2-2-25.5h2
			c3.6,8.1,8.1,17.8,12.9,25.9l49.3,86.5h113.1L1132,475.8L1216,343.7L1216,343.7z"/>
	</g>
</g>
</svg>
