<?xml version="1.0" encoding="utf-8"?>
<!-- Generator: Adobe Illustrator 21.0.0, SVG Export Plug-In . SVG Version: 6.00 Build 0)  -->
<svg version="1.1" id="Layer_1" xmlns="http://www.w3.org/2000/svg" xmlns:xlink="http://www.w3.org/1999/xlink" x="0px" y="0px"
	 viewBox="0 0 400 315.5" style="enable-background:new 0 0 400 315.5;" xml:space="preserve">
<style type="text/css">
	.st0{fill:#FFFFFF;}
</style>
<g>
	<path class="st0" d="M13.3,286.9L57,17.5h100.6l31.5,110.3c4,14.1,5.7,27.5,6.1,31.1h2.4c0.4-11.7,2-19.8,5.3-31.1l31.5-110.3h99.8
		l44,269.5H284l-12.1-120.8c-0.8-9.3-1.6-15.4-1.6-26.7h-1.6c-1.2,6.9-3.6,17.4-5.3,22.6l-40,124.8H166l-36-118
		c-2.8-9.7-4.8-18.2-5.3-29.5H122c0,5.3,0,15.8-0.4,21l-13.3,126.5L13.3,286.9L13.3,286.9z"/>
</g>
</svg>
