<?xml version="1.0" encoding="utf-8"?>
<!-- Generator: Adobe Illustrator 21.0.0, SVG Export Plug-In . SVG Version: 6.00 Build 0)  -->
<svg version="1.1" id="Layer_1" xmlns="http://www.w3.org/2000/svg" xmlns:xlink="http://www.w3.org/1999/xlink" x="0px" y="0px"
	 viewBox="0 0 248 315.5" style="enable-background:new 0 0 248 315.5;" xml:space="preserve">
<style type="text/css">
	.st0{fill:#FFFFFF;}
</style>
<g>
	<path class="st0" d="M197.9,103.5c-11.7-8.1-33.1-20.2-54.9-20.2c-5.3,0-13.3,0.8-18.6,4.8c-3.6,2.8-4.8,5.7-4.8,9.7
		c0,5.7,0.8,10.9,15.8,14.1l31.1,6.9c23.8,5.3,38,14.9,46.1,23c17,16.6,20.6,37.2,20.6,53.3c0,23-6.1,44.4-24.2,63.4
		c-15.4,15.8-44.4,34.3-94.9,34.3c-41.2,0-68.7-11.7-91.7-21l-8.9-3.6l29.5-76l10.5,8.1c10.1,7.7,30.7,19.8,54.5,19.8
		c13.3,0,19-3.2,21-4.8c4.4-3.6,5.3-8.1,5.3-12.1c0-2.4-0.4-6.5-3.2-9.3c-3.2-3.2-8.5-4.4-18.6-6.5L88.7,183
		c-15.4-2.8-31.9-7.7-46.9-23c-13.7-14.1-19.4-30.3-19.4-49.7c0-25,8.5-46.5,26.3-64.2c20.6-21,50.9-34.7,93.7-34.7
		c21.4,0,49.3,3.6,82,23.4L197.9,103.5z"/>
</g>
</svg>
